<svg width="54" height="54" viewBox="0 0 54 54" fill="none" xmlns="http://www.w3.org/2000/svg">
<path d="M0.972656 0.484375H53.9997V26.9979C53.9997 41.6409 42.1292 53.5114 27.4862 53.5114C12.8432 53.5114 0.972656 41.6409 0.972656 26.9979V0.484375Z" fill="#CE1DC7"/>
<mask id="mask0" style="mask-type:alpha" maskUnits="userSpaceOnUse" x="0" y="0" width="54" height="54">
<path d="M0.972656 0.484375H53.9997V26.9979C53.9997 41.6409 42.1292 53.5114 27.4862 53.5114C12.8432 53.5114 0.972656 41.6409 0.972656 26.9979V0.484375Z" fill="#C4C4C4"/>
</mask>
<g mask="url(#mask0)">
<path d="M-2.5625 62.1686L53.5475 6.05859H-2.5625" stroke="white" stroke-width="0.883784"/>
<path d="M1.93359 62.169L53.9073 10.1953" stroke="white" stroke-width="0.883784"/>
<path d="M6.42969 62.1691L53.9074 14.6914" stroke="white" stroke-width="0.883784"/>
<path d="M10.9258 62.1692L53.9075 19.1875" stroke="white" stroke-width="0.883784"/>
<path d="M15.4199 62.1693L53.9056 23.6836" stroke="white" stroke-width="0.883784"/>
</g>
</svg>
