<svg width="40" height="40" viewBox="0 0 40 40" fill="none" xmlns="http://www.w3.org/2000/svg">
<circle cx="20" cy="14.1666" r="10" stroke="white" stroke-width="3"/>
<path d="M14.8335 27.5C14.8335 26.6716 14.1619 26 13.3335 26C12.5051 26 11.8335 26.6716 11.8335 27.5H14.8335ZM13.3335 35.8333H11.8335C11.8335 36.3532 12.1027 36.836 12.5449 37.1093C12.9871 37.3826 13.5393 37.4074 14.0043 37.175L13.3335 35.8333ZM20.0002 32.5L20.671 31.1583L20.0002 30.8229L19.3293 31.1583L20.0002 32.5ZM26.6668 35.8333L25.996 37.175C26.461 37.4074 27.0132 37.3826 27.4554 37.1093C27.8977 36.836 28.1668 36.3532 28.1668 35.8333H26.6668ZM28.1668 27.5C28.1668 26.6716 27.4953 26 26.6668 26C25.8384 26 25.1668 26.6716 25.1668 27.5H28.1668ZM11.8335 27.5V35.8333H14.8335V27.5H11.8335ZM14.0043 37.175L20.671 33.8416L19.3293 31.1583L12.6627 34.4917L14.0043 37.175ZM19.3293 33.8416L25.996 37.175L27.3376 34.4917L20.671 31.1583L19.3293 33.8416ZM28.1668 35.8333V27.5H25.1668V35.8333H28.1668Z" fill="white"/>
</svg>
