<svg width="62" height="62" viewBox="0 0 62 62" fill="none" xmlns="http://www.w3.org/2000/svg">
<rect x="1" y="1.00024" width="60" height="24" fill="#D33131" stroke="#E3A65E" stroke-width="1.5" stroke-linejoin="round"/>
<path d="M1 21L61 21L61 28.1556C61 36.1801 56.9896 43.6736 50.3128 48.1248L31 61L11.6872 48.1248C5.01042 43.6736 0.999997 36.1801 0.999999 28.1556L1 21Z" fill="#D33131" stroke="#E3A65E" stroke-width="1.5" stroke-linejoin="round"/>
<circle cx="10" cy="30.0005" r="1" fill="#E3A65E"/>
<circle cx="21" cy="39.9992" r="1" fill="#E3A65E"/>
<circle cx="42" cy="39.9992" r="1" fill="#E3A65E"/>
<circle cx="31" cy="30.0005" r="1" fill="#E3A65E"/>
<circle cx="31" cy="49.9999" r="1" fill="#E3A65E"/>
<circle cx="52" cy="30.0005" r="1" fill="#E3A65E"/>
<path d="M31 21L31 13C31 6.37258 36.3726 0.999999 43 1L51 1L51 9C51 15.6274 45.6274 21 39 21L31 21Z" fill="#D33131" stroke="#E3A65E" stroke-width="1.5" stroke-linejoin="round"/>
<path d="M31 21L23 21C16.3726 21 11 15.6274 11 9L11 1L19 1C25.6274 1 31 6.37259 31 13L31 21Z" fill="#D33131" stroke="#E3A65E" stroke-width="1.5" stroke-linejoin="round"/>
<path d="M31 21.0002L42 10.0002" stroke="#E3A65E" stroke-width="1.5" stroke-linejoin="round"/>
<path d="M31 21.0002L20 10.0002" stroke="#E3A65E" stroke-width="1.5" stroke-linejoin="round"/>
</svg>
