<svg width="54" height="54" viewBox="0 0 54 54" fill="none" xmlns="http://www.w3.org/2000/svg">
<path d="M0.0273438 0.207031H53.0544V26.7205C53.0544 41.3635 41.1839 53.2341 26.5409 53.2341V53.2341C11.8979 53.2341 0.0273438 41.3636 0.0273438 26.7206V0.207031Z" fill="#0047FF"/>
<mask id="mask0" style="mask-type:alpha" maskUnits="userSpaceOnUse" x="0" y="0" width="54" height="54">
<path d="M0.0273438 0.207031H53.0544V26.7205C53.0544 41.3635 41.1839 53.2341 26.5409 53.2341V53.2341C11.8979 53.2341 0.0273438 41.3636 0.0273438 26.7206V0.207031Z" fill="#C4C4C4"/>
</mask>
<g mask="url(#mask0)">
<path d="M-3.50781 61.8912L52.6022 5.78125H-3.50781" stroke="white" stroke-width="0.883784"/>
<path d="M0.986328 61.8916L52.96 9.91797" stroke="white" stroke-width="0.883784"/>
<path d="M5.48438 61.8918L52.9621 14.4141" stroke="white" stroke-width="0.883784"/>
<path d="M9.98047 61.8918L52.9622 18.9102" stroke="white" stroke-width="0.883784"/>
<path d="M14.4746 61.892L52.9603 23.4062" stroke="white" stroke-width="0.883784"/>
</g>
</svg>
