<svg width="54" height="54" viewBox="0 0 54 54" fill="none" xmlns="http://www.w3.org/2000/svg">
<path d="M26.9998 0C30.4816 4.15201e-08 33.9294 0.685793 37.1461 2.01822C40.3629 3.35065 43.2857 5.30362 45.7477 7.76563C48.2097 10.2276 50.1627 13.1505 51.4951 16.3672C52.8276 19.584 53.5134 23.0317 53.5134 26.5135C53.5134 29.9953 52.8276 33.443 51.4951 36.6598C50.1627 39.8766 48.2097 42.7994 45.7477 45.2614C43.2857 47.7234 40.3629 49.6764 37.1461 51.0088C33.9293 52.3412 30.4816 53.027 26.9998 53.027L26.9998 26.5135V0Z" fill="#0047FF"/>
<path d="M27 0V26.5135" stroke="#DEB6A9" stroke-width="1.76757" stroke-miterlimit="10"/>
<path d="M27 0V26.5135" stroke="#DEB6A9" stroke-width="1.76757" stroke-miterlimit="10"/>
<path d="M27 26.5117V53.0252" stroke="#DEB6A9" stroke-width="1.76757" stroke-miterlimit="10"/>
<path d="M20.1426 0.902344L27.0007 26.5144" stroke="#DEB6A9" stroke-width="1.76757" stroke-miterlimit="10"/>
<path d="M13.7441 3.55078L27.0009 26.5115" stroke="#DEB6A9" stroke-width="1.76757" stroke-miterlimit="10"/>
<path d="M8.25391 7.76953L26.999 26.5146" stroke="#DEB6A9" stroke-width="1.76757" stroke-miterlimit="10"/>
<path d="M4.03906 13.2578L26.9998 26.5146" stroke="#DEB6A9" stroke-width="1.76757" stroke-miterlimit="10"/>
<path d="M1.38672 19.6562L26.9988 26.5144" stroke="#DEB6A9" stroke-width="1.76757" stroke-miterlimit="10"/>
<path d="M0.486328 26.5117H26.9998" stroke="#DEB6A9" stroke-width="1.76757" stroke-miterlimit="10"/>
<path d="M1.38672 33.3699L26.9988 26.5117" stroke="#DEB6A9" stroke-width="1.76757" stroke-miterlimit="10"/>
<path d="M4.03906 39.7685L26.9998 26.5117" stroke="#DEB6A9" stroke-width="1.76757" stroke-miterlimit="10"/>
<path d="M8.25391 45.2568L26.999 26.5117" stroke="#DEB6A9" stroke-width="1.76757" stroke-miterlimit="10"/>
<path d="M13.7441 49.4724L27.0009 26.5117" stroke="#DEB6A9" stroke-width="1.76757" stroke-miterlimit="10"/>
<path d="M20.1426 52.1238L27.0007 26.5117" stroke="#DEB6A9" stroke-width="1.76757" stroke-miterlimit="10"/>
</svg>
