<svg width="62" height="62" viewBox="0 0 62 62" fill="none" xmlns="http://www.w3.org/2000/svg">
<path d="M61 61L1 61L1 31C1 14.4315 14.4315 0.999996 31 0.999997C47.5685 0.999999 61 14.4315 61 31L61 61Z" fill="url(#paint0_linear)"/>
<path fill-rule="evenodd" clip-rule="evenodd" d="M60.9993 40.265L38.9679 61H36.7793L60.9993 38.2051V40.265Z" fill="#D37B7B"/>
<path fill-rule="evenodd" clip-rule="evenodd" d="M59.7026 22.2477L36.0407 61H34.2832L59.0731 20.4003C59.3023 21.0069 59.5124 21.623 59.7026 22.2477Z" fill="#D37B7B"/>
<path fill-rule="evenodd" clip-rule="evenodd" d="M44.7518 4.32997L33.4611 61H31.9316L43.3569 3.65454C43.8285 3.86797 44.2936 4.09324 44.7518 4.32997Z" fill="#D37B7B"/>
<path fill-rule="evenodd" clip-rule="evenodd" d="M19.5656 3.25598L31.0703 61L29.5408 61L18.1602 3.87869C18.6223 3.65953 19.0909 3.45184 19.5656 3.25598Z" fill="#D37B7B"/>
<path fill-rule="evenodd" clip-rule="evenodd" d="M2.64453 21.179C2.85191 20.5802 3.07772 19.9899 3.32129 19.409L28.7164 61H26.9589L2.64453 21.179Z" fill="#D37B7B"/>
<path fill-rule="evenodd" clip-rule="evenodd" d="M0.999999 39.3227L1 37.2628L26.2212 61H24.0325L0.999999 39.3227Z" fill="#D37B7B"/>
<path d="M61 61L1 61L1 31C1.00001 14.4315 14.4315 0.999995 31 0.999997V0.999997C47.5685 0.999998 61 14.4315 61 31L61 61Z" stroke="#D37B7B" stroke-width="1.5" stroke-linejoin="round"/>
<defs>
<linearGradient id="paint0_linear" x1="61" y1="61" x2="1" y2="1" gradientUnits="userSpaceOnUse">
<stop stop-color="#8F00FF"/>
<stop offset="1" stop-color="#FF5C00"/>
</linearGradient>
</defs>
</svg>
