<svg width="62" height="62" viewBox="0 0 62 62" fill="none" xmlns="http://www.w3.org/2000/svg">
<rect x="1" y="16" width="60" height="45" fill="#0029FF" stroke="#007ED9" stroke-width="1.5" stroke-linejoin="round"/>
<mask id="mask0" style="mask-type:alpha" maskUnits="userSpaceOnUse" x="0" y="0" width="62" height="62">
<rect x="1" y="1" width="60" height="60" fill="#2400FF" stroke="#41AFFF" stroke-width="1.5" stroke-linejoin="round"/>
</mask>
<g mask="url(#mask0)">
<path d="M31.0011 52.1738L22.1211 61.0538" stroke="#007ED9" stroke-width="1.5" stroke-miterlimit="10" stroke-linejoin="round"/>
<path d="M39.85 61.0338L31 52.1738" stroke="#007ED9" stroke-width="1.5" stroke-miterlimit="10" stroke-linejoin="round"/>
<path d="M61 16.0042C61.0046 19.6677 59.6629 23.2052 57.23 25.9442L31 52.1742L4.77 25.9442C3.16005 24.1261 2.01561 21.9443 1.43501 19.5862C0.854406 17.2282 0.855006 14.7644 1.43676 12.4067C2.01851 10.0489 3.16402 7.86766 4.77485 6.05033C6.38568 4.23301 8.41366 2.83395 10.6845 1.97339C12.9554 1.11283 15.4013 0.816493 17.812 1.10985C20.2227 1.4032 22.5261 2.27747 24.5243 3.65754C26.5225 5.0376 28.1558 6.88219 29.2838 9.0328C30.4117 11.1834 31.0007 13.5757 31 16.0042C31 12.026 32.5804 8.21065 35.3934 5.3976C38.2064 2.58455 42.0218 1.0042 46 1.0042C49.9782 1.0042 53.7936 2.58455 56.6066 5.3976C59.4196 8.21065 61 12.026 61 16.0042Z" fill="#0029FF" stroke="#007ED9" stroke-width="1.5" stroke-linejoin="round"/>
<path d="M61 40.0042C61.0046 43.6677 59.6629 47.2052 57.23 49.9442L31 76.1742L4.77 49.9442C3.16005 48.1261 2.01561 45.9443 1.43501 43.5862C0.854406 41.2282 0.855006 38.7644 1.43676 36.4067C2.01851 34.0489 3.16402 31.8677 4.77485 30.0503C6.38568 28.233 8.41366 26.834 10.6845 25.9734C12.9554 25.1128 15.4013 24.8165 17.812 25.1098C20.2227 25.4032 22.5261 26.2775 24.5243 27.6575C26.5225 29.0376 28.1558 30.8822 29.2838 33.0328C30.4117 35.1834 31.0007 37.5757 31 40.0042C31 36.026 32.5804 32.2106 35.3934 29.3976C38.2064 26.5846 42.0218 25.0042 46 25.0042C49.9782 25.0042 53.7936 26.5846 56.6066 29.3976C59.4196 32.2106 61 36.026 61 40.0042V40.0042Z" stroke="#007ED9" stroke-width="1.5" stroke-linejoin="round"/>
<path d="M61 28.0042C61.0046 31.6677 59.6629 35.2052 57.23 37.9442L31 64.1742L4.77 37.9442C3.16005 36.1261 2.01561 33.9443 1.43501 31.5862C0.854406 29.2282 0.855006 26.7644 1.43676 24.4067C2.01851 22.0489 3.16402 19.8677 4.77485 18.0503C6.38568 16.233 8.41366 14.834 10.6845 13.9734C12.9554 13.1128 15.4013 12.8165 17.812 13.1098C20.2227 13.4032 22.5261 14.2775 24.5243 15.6575C26.5225 17.0376 28.1558 18.8822 29.2838 21.0328C30.4117 23.1834 31.0007 25.5757 31 28.0042C31 24.026 32.5804 20.2106 35.3934 17.3976C38.2064 14.5846 42.0218 13.0042 46 13.0042C49.9782 13.0042 53.7936 14.5846 56.6066 17.3976C59.4196 20.2106 61 24.026 61 28.0042V28.0042Z" stroke="#007ED9" stroke-width="1.5" stroke-linejoin="round"/>
</g>
</svg>
