<svg width="54" height="54" viewBox="0 0 54 54" fill="none" xmlns="http://www.w3.org/2000/svg">
<path d="M0.207031 0.0273438H53.2341V26.5408C53.2341 41.1838 41.3635 53.0544 26.7205 53.0544V53.0544C12.0775 53.0544 0.207031 41.1839 0.207031 26.5409V0.0273438Z" fill="#CE1DC7"/>
<mask id="mask0" style="mask-type:alpha" maskUnits="userSpaceOnUse" x="0" y="0" width="54" height="54">
<path d="M0.207031 0.0273438H53.2341V26.5408C53.2341 41.1838 41.3635 53.0544 26.7205 53.0544V53.0544C12.0775 53.0544 0.207031 41.1839 0.207031 26.5409V0.0273438Z" fill="#C4C4C4"/>
</mask>
<g mask="url(#mask0)">
<path d="M-3.32812 61.7116L52.7819 5.60156H-3.32812" stroke="white" stroke-width="0.883784"/>
<path d="M1.16797 61.712L53.1416 9.73828" stroke="white" stroke-width="0.883784"/>
<path d="M5.66406 61.7121L53.1418 14.2344" stroke="white" stroke-width="0.883784"/>
<path d="M10.1602 61.7122L53.1418 18.7305" stroke="white" stroke-width="0.883784"/>
<path d="M14.6543 61.7123L53.14 23.2266" stroke="white" stroke-width="0.883784"/>
</g>
</svg>
