<svg width="62" height="62" viewBox="0 0 62 62" fill="none" xmlns="http://www.w3.org/2000/svg">
<path d="M1 1L61 1.00001L61 31L31 61L0.999995 31L1 1Z" fill="#E88B00"/>
<mask id="mask0" style="mask-type:alpha" maskUnits="userSpaceOnUse" x="1" y="1" width="60" height="60">
<path d="M1 1L61 1.00001L61 31L31 61L0.999995 31L1 1Z" fill="#7B00DB"/>
</mask>
<g mask="url(#mask0)">
<path d="M-1 20L31 52L62.5 20.5" stroke="#DEBA00" stroke-width="1.5"/>
<path d="M-1 11L31 43L62.5 11.5" stroke="#DEBA00" stroke-width="1.5"/>
<path d="M-1 2L31 34L62.5 2.5" stroke="#DEBA00" stroke-width="1.5"/>
<path d="M-1 -7L31 25L62.5 -6.5" stroke="#DEBA00" stroke-width="1.5"/>
<path d="M-1 -16L31 16L62.5 -15.5" stroke="#DEBA00" stroke-width="1.5"/>
<path d="M-1 -25L31 7L62.5 -24.5" stroke="#ED9612" stroke-width="1.5"/>
</g>
<path d="M1 1L61 1.00001L61 31L31 61L0.999995 31L1 1Z" stroke="#DEBA00" stroke-width="1.5" stroke-linejoin="round"/>
</svg>
