<svg width="54" height="54" viewBox="0 0 54 54" fill="none" xmlns="http://www.w3.org/2000/svg">
<path d="M26.5135 0.0273437C29.9953 0.0273438 33.443 0.713136 36.6598 2.04557C39.8766 3.37799 42.7994 5.33097 45.2614 7.79297C47.7234 10.255 49.6764 13.1778 51.0088 16.3946C52.3412 19.6113 53.027 23.0591 53.027 26.5409C53.027 30.0227 52.3412 33.4704 51.0088 36.6871C49.6764 39.9039 47.7234 42.8267 45.2614 45.2887C42.7994 47.7508 39.8766 49.7037 36.6598 51.0362C33.443 52.3686 29.9953 53.0544 26.5135 53.0544L26.5135 26.5409L26.5135 0.0273437Z" fill="#0047FF"/>
<path d="M26.5137 0.0273438V26.5409" stroke="#DEB6A9" stroke-width="1.76757" stroke-miterlimit="10"/>
<path d="M26.5137 0.0273438V26.5409" stroke="#DEB6A9" stroke-width="1.76757" stroke-miterlimit="10"/>
<path d="M26.5137 26.5391V53.0526" stroke="#DEB6A9" stroke-width="1.76757" stroke-miterlimit="10"/>
<path d="M19.6562 0.929688L26.5144 26.5417" stroke="#DEB6A9" stroke-width="1.76757" stroke-miterlimit="10"/>
<path d="M13.2578 3.57812L26.5146 26.5388" stroke="#DEB6A9" stroke-width="1.76757" stroke-miterlimit="10"/>
<path d="M7.76758 7.79688L26.5126 26.5419" stroke="#DEB6A9" stroke-width="1.76757" stroke-miterlimit="10"/>
<path d="M3.55273 13.2852L26.5134 26.5419" stroke="#DEB6A9" stroke-width="1.76757" stroke-miterlimit="10"/>
<path d="M0.900391 19.6836L26.5124 26.5418" stroke="#DEB6A9" stroke-width="1.76757" stroke-miterlimit="10"/>
<path d="M0 26.5391H26.5135" stroke="#DEB6A9" stroke-width="1.76757" stroke-miterlimit="10"/>
<path d="M0.900391 33.3972L26.5124 26.5391" stroke="#DEB6A9" stroke-width="1.76757" stroke-miterlimit="10"/>
<path d="M3.55273 39.7958L26.5134 26.5391" stroke="#DEB6A9" stroke-width="1.76757" stroke-miterlimit="10"/>
<path d="M7.76758 45.2841L26.5126 26.5391" stroke="#DEB6A9" stroke-width="1.76757" stroke-miterlimit="10"/>
<path d="M13.2578 49.4998L26.5146 26.5391" stroke="#DEB6A9" stroke-width="1.76757" stroke-miterlimit="10"/>
<path d="M19.6562 52.1511L26.5144 26.5391" stroke="#DEB6A9" stroke-width="1.76757" stroke-miterlimit="10"/>
</svg>
