<svg width="54" height="55" viewBox="0 0 54 55" fill="none" xmlns="http://www.w3.org/2000/svg">
<path d="M0.486328 0.972656H26.9998H53.5134V53.9997H0.486328V0.972656Z" fill="#E53434"/>
<path d="M0.92822 25.2778H26.9998H53.0715V53.5589H0.92822V25.2778Z" fill="white" stroke="#EAEAEA" stroke-width="0.883784"/>
<rect x="19.8984" y="46.9609" width="10.1316" height="10.1316" transform="rotate(-45 19.8984 46.9609)" fill="#FF5C00"/>
<path d="M20.1303 17.9643C17.3692 15.2032 17.3692 10.7265 20.1303 7.96541L27.0622 1.03355L33.994 7.96541C36.7551 10.7265 36.7551 15.2032 33.994 17.9643L27.0622 24.8961L20.1303 17.9643Z" fill="#FF5C00"/>
<rect x="0.486328" y="7.22266" width="8.83784" height="8.83784" transform="rotate(-45 0.486328 7.22266)" fill="#FF5C00"/>
<rect x="41.1406" y="7.22266" width="8.83784" height="8.83784" transform="rotate(-45 41.1406 7.22266)" fill="#FF5C00"/>
<circle cx="16.3955" cy="39.8603" r="4.41892" fill="black"/>
<circle cx="37.6045" cy="39.8603" r="4.41892" fill="black"/>
<path d="M0.486328 24.8363V7.16062L6.67281 13.3471L16.8363 3.18359L26.9998 13.3471L37.1634 3.18359L47.3269 13.3471L53.5134 7.16062V24.8363H0.486328Z" fill="#FFB800"/>
</svg>
