<svg width="62" height="62" viewBox="0 0 62 62" fill="none" xmlns="http://www.w3.org/2000/svg">
<circle cx="31" cy="31" r="30" fill="#691DCA" stroke="#AD8A48" stroke-width="1.5" stroke-linejoin="round"/>
<path fill-rule="evenodd" clip-rule="evenodd" d="M50.8845 8.53613C44.1491 13.2881 39.75 21.1303 39.75 30C39.75 39.4068 44.698 47.658 52.1334 52.2928C51.7671 52.6564 51.3914 53.0106 51.0068 53.355C43.3329 48.4183 38.25 39.8028 38.25 30C38.25 20.7652 42.761 12.584 49.6996 7.53961C50.1032 7.86172 50.4983 8.19402 50.8845 8.53613Z" fill="#AD8A48"/>
<path fill-rule="evenodd" clip-rule="evenodd" d="M7.1875 12.75C7.58154 12.2366 7.9918 11.7364 8.41753 11.25L39.9999 11.25L39.9999 12.75L7.1875 12.75Z" fill="#AD8A48"/>
<path fill-rule="evenodd" clip-rule="evenodd" d="M1.53509 25.3276C20.7978 26.5102 36.4419 41.0746 39.2871 59.8407C38.8052 59.9789 38.3184 60.1053 37.8269 60.2197C35.1409 42.0214 19.9648 27.8899 1.28906 26.8157C1.35885 26.3156 1.44097 25.8195 1.53509 25.3276Z" fill="#AD8A48"/>
</svg>
