<svg width="36" height="36" viewBox="0 0 36 36" fill="none" xmlns="http://www.w3.org/2000/svg">
<g clip-path="url(#clip0_4676_61754)">
<path d="M1.66699 9.66675C1.66699 6.90532 3.90557 4.66675 6.66699 4.66675H23.3337C26.0951 4.66675 28.3337 6.90532 28.3337 9.66675V26.3334C28.3337 29.0948 26.0951 31.3334 23.3337 31.3334H6.66699C3.90557 31.3334 1.66699 29.0948 1.66699 26.3334V9.66675Z" stroke="#036BE5" stroke-width="2.5" stroke-linecap="round" stroke-linejoin="round"/>
<path d="M8.75 6.33325C8.75 7.02361 9.30964 7.58325 10 7.58325C10.6904 7.58325 11.25 7.02361 11.25 6.33325L8.75 6.33325ZM11.25 2.99992C11.25 2.30956 10.6904 1.74992 10 1.74992C9.30964 1.74992 8.75 2.30956 8.75 2.99992L11.25 2.99992ZM11.25 6.33325L11.25 2.99992L8.75 2.99992L8.75 6.33325L11.25 6.33325Z" fill="#036BE5"/>
<path d="M18.75 6.33325C18.75 7.02361 19.3096 7.58325 20 7.58325C20.6904 7.58325 21.25 7.02361 21.25 6.33325L18.75 6.33325ZM21.25 2.99992C21.25 2.30956 20.6904 1.74992 20 1.74992C19.3096 1.74992 18.75 2.30956 18.75 2.99992L21.25 2.99992ZM21.25 6.33325L21.25 2.99992L18.75 2.99992L18.75 6.33325L21.25 6.33325Z" fill="#036BE5"/>
<ellipse cx="21.6667" cy="11.3334" rx="1.66667" ry="1.66667" fill="#036BE5"/>
<circle cx="15.0007" cy="17.9999" r="1.66667" fill="#036BE5"/>
<ellipse cx="21.6667" cy="17.9999" rx="1.66667" ry="1.66667" fill="#036BE5"/>
<ellipse cx="8.33366" cy="17.9999" rx="1.66667" ry="1.66667" fill="#036BE5"/>
<ellipse cx="15.0007" cy="24.6667" rx="1.66667" ry="1.66667" fill="#036BE5"/>
<ellipse cx="8.33366" cy="24.6667" rx="1.66667" ry="1.66667" fill="#036BE5"/>
</g>
<defs>
<clipPath id="clip0_4676_61754">
<rect width="36" height="36" fill="white"/>
</clipPath>
</defs>
</svg>
