<svg width="36" height="36" viewBox="0 0 36 36" fill="none" xmlns="http://www.w3.org/2000/svg">
<g clip-path="url(#clip0_4676_61754)">
<path d="M1.6665 9.66663C1.6665 6.9052 3.90508 4.66663 6.6665 4.66663H23.3332C26.0946 4.66663 28.3332 6.9052 28.3332 9.66663V26.3333C28.3332 29.0947 26.0946 31.3333 23.3332 31.3333H6.6665C3.90508 31.3333 1.6665 29.0947 1.6665 26.3333V9.66663Z" stroke="#036BE5" stroke-width="2.5" stroke-linecap="round" stroke-linejoin="round"/>
<path d="M8.75 6.33337C8.75 7.02373 9.30964 7.58337 10 7.58337C10.6904 7.58337 11.25 7.02373 11.25 6.33337L8.75 6.33337ZM11.25 3.00004C11.25 2.30969 10.6904 1.75004 10 1.75004C9.30964 1.75004 8.75 2.30969 8.75 3.00004L11.25 3.00004ZM11.25 6.33337L11.25 3.00004L8.75 3.00004L8.75 6.33337L11.25 6.33337Z" fill="#036BE5"/>
<path d="M18.75 6.33337C18.75 7.02373 19.3096 7.58337 20 7.58337C20.6904 7.58337 21.25 7.02373 21.25 6.33337L18.75 6.33337ZM21.25 3.00004C21.25 2.30969 20.6904 1.75004 20 1.75004C19.3096 1.75004 18.75 2.30969 18.75 3.00004L21.25 3.00004ZM21.25 6.33337L21.25 3.00004L18.75 3.00004L18.75 6.33337L21.25 6.33337Z" fill="#036BE5"/>
<ellipse cx="21.6667" cy="11.3333" rx="1.66667" ry="1.66667" fill="#036BE5"/>
<circle cx="14.9997" cy="18" r="1.66667" fill="#036BE5"/>
<ellipse cx="21.6667" cy="18" rx="1.66667" ry="1.66667" fill="#036BE5"/>
<ellipse cx="8.33317" cy="18" rx="1.66667" ry="1.66667" fill="#036BE5"/>
<ellipse cx="14.9997" cy="24.6667" rx="1.66667" ry="1.66667" fill="#036BE5"/>
<ellipse cx="8.33317" cy="24.6667" rx="1.66667" ry="1.66667" fill="#036BE5"/>
</g>
<defs>
<clipPath id="clip0_4676_61754">
<rect width="36" height="36" fill="white"/>
</clipPath>
</defs>
</svg>
