<svg width="40" height="40" viewBox="0 0 40 40" fill="none" xmlns="http://www.w3.org/2000/svg">
<path d="M10 23.3334L11.4286 35H28.5714L30 23.3334" stroke="white" stroke-width="3" stroke-linecap="round" stroke-linejoin="round"/>
<path d="M19.9998 23.3333H6.6665V20C6.6665 18.159 8.15889 16.6666 9.99984 16.6666H29.9998C31.8408 16.6666 33.3332 18.159 33.3332 20V23.3333H25.8332" stroke="white" stroke-width="3" stroke-linecap="round" stroke-linejoin="round"/>
<path d="M30 16.6667V15C30 12.2386 27.7614 10 25 10H15C12.2386 10 10 12.2386 10 15V16.6667" stroke="white" stroke-width="3" stroke-linecap="round" stroke-linejoin="round"/>
<path d="M23.3332 10V8.33333C23.3332 6.49238 21.8408 5 19.9998 5C18.1589 5 16.6665 6.49238 16.6665 8.33333V10" stroke="white" stroke-width="3" stroke-linecap="round" stroke-linejoin="round"/>
</svg>
