<svg width="36" height="36" viewBox="0 0 36 36" fill="none" xmlns="http://www.w3.org/2000/svg">
<g clip-path="url(#clip0_4676_61753)">
<path d="M13 18H23" stroke="#007830" stroke-width="2.5"/>
<path d="M12.9997 18V24.6667C12.9997 26.5076 11.5073 28 9.66634 28C7.82539 28 6.33301 26.5076 6.33301 24.6667V11.3333C6.33301 9.49238 7.82539 8 9.66634 8C11.5073 8 12.9997 9.49238 12.9997 11.3333V13M22.9997 18V11.3333C22.9997 9.49238 24.4921 8 26.333 8C28.174 8 29.6663 9.49238 29.6663 11.3333V24.6667C29.6663 26.5076 28.174 28 26.333 28C24.4921 28 22.9997 26.5076 22.9997 24.6667V23" stroke="#007830" stroke-width="2.5" stroke-linecap="round"/>
<path d="M2.99967 22.6667C2.0792 22.6667 1.33301 21.9206 1.33301 21.0001V16.3334C1.33301 15.4129 2.0792 14.6667 2.99967 14.6667" stroke="#007830" stroke-width="2.5"/>
<path d="M33 22.6667C33.9205 22.6667 34.6667 21.9206 34.6667 21.0001V16.3334C34.6667 15.4129 33.9205 14.6667 33 14.6667" stroke="#007830" stroke-width="2.5"/>
</g>
<defs>
<clipPath id="clip0_4676_61753">
<rect width="36" height="36" fill="white"/>
</clipPath>
</defs>
</svg>
