<svg width="40" height="40" viewBox="0 0 40 40" fill="none" xmlns="http://www.w3.org/2000/svg">
<path d="M15 20H25" stroke="white" stroke-width="3"/>
<path d="M15.0002 20V26.6667C15.0002 28.5076 13.5078 30 11.6668 30C9.82588 30 8.3335 28.5076 8.3335 26.6667V13.3333C8.3335 11.4924 9.82588 10 11.6668 10C13.5078 10 15.0002 11.4924 15.0002 13.3333V15M25.0002 20V13.3333C25.0002 11.4924 26.4925 10 28.3335 10C30.1744 10 31.6668 11.4924 31.6668 13.3333V26.6667C31.6668 28.5076 30.1744 30 28.3335 30C26.4925 30 25.0002 28.5076 25.0002 26.6667V25" stroke="white" stroke-width="3" stroke-linecap="round"/>
<path d="M5.00016 24.6666C4.07969 24.6666 3.3335 23.9204 3.3335 23V18.3333C3.3335 17.4128 4.07969 16.6666 5.00016 16.6666" stroke="white" stroke-width="3"/>
<path d="M35 24.6666C35.9205 24.6666 36.6667 23.9204 36.6667 23V18.3333C36.6667 17.4128 35.9205 16.6666 35 16.6666" stroke="white" stroke-width="3"/>
</svg>
