<svg width="36" height="36" viewBox="0 0 36 36" fill="none" xmlns="http://www.w3.org/2000/svg">
<g clip-path="url(#clip0_4676_61753)">
<path d="M13 18H23" stroke="#036BE5" stroke-width="2.5"/>
<path d="M13.0002 18V24.6667C13.0002 26.5076 11.5078 28 9.66683 28C7.82588 28 6.3335 26.5076 6.3335 24.6667V11.3333C6.3335 9.49238 7.82588 8 9.66683 8C11.5078 8 13.0002 9.49238 13.0002 11.3333V13M23.0002 18V11.3333C23.0002 9.49238 24.4925 8 26.3335 8C28.1744 8 29.6668 9.49238 29.6668 11.3333V24.6667C29.6668 26.5076 28.1744 28 26.3335 28C24.4925 28 23.0002 26.5076 23.0002 24.6667V23" stroke="#036BE5" stroke-width="2.5" stroke-linecap="round"/>
<path d="M3.00016 22.6666C2.07969 22.6666 1.3335 21.9204 1.3335 21V16.3333C1.3335 15.4128 2.07969 14.6666 3.00016 14.6666" stroke="#036BE5" stroke-width="2.5"/>
<path d="M33 22.6666C33.9205 22.6666 34.6667 21.9204 34.6667 21V16.3333C34.6667 15.4128 33.9205 14.6666 33 14.6666" stroke="#036BE5" stroke-width="2.5"/>
</g>
<defs>
<clipPath id="clip0_4676_61753">
<rect width="36" height="36" fill="white"/>
</clipPath>
</defs>
</svg>
