<svg fill="none" height="40" viewBox="0 0 40 40" width="40" xmlns="http://www.w3.org/2000/svg"><g stroke="#8f00ff" stroke-linecap="round" stroke-linejoin="round" stroke-width="2"><path d="m30.0544 31.1091c-1.699.7952-3.5525 1.206-5.4284 1.2034h-14.0937c-1.27191-.0012-2.529-.273-3.68785-.7972-1.15884-.5242-2.19293-1.289-3.03363-2.2434s-1.46878-2.0768-1.84255-3.2925c-.37377-1.2158-.48468-2.4971-.32538-3.759.15931-1.2619.58519-2.4754 1.24938-3.5601.66419-1.0848 1.55149-2.0158 2.60302-2.7313 1.05153-.7156 2.24322-1.1993 3.49599-1.4191 1.25282-.2198 2.53792-.1706 3.77022.1443"/><path d="m11.8125 19.4985c-.0036-2.2885.6087-4.5359 1.7726-6.5063"/><path d="m33.166 23.7715v5.125h5.125"/><path d="m16.9375 14.375v-5.125h-5.125"/><path d="m21.3089 7.12408c2.7243-.73 5.6135-.54063 8.2192.53871 2.6058 1.07935 4.7826 2.98841 6.1929 5.43101 1.4102 2.4425 1.975 5.2822 1.6069 8.0786-.3682 2.7963-1.6487 5.393-3.6431 7.3874"/><path d="m11.8125 19.5c0-1.6826.3314-3.3486.9753-4.9031s1.5876-2.967 2.7774-4.1567"/></g></svg>