<svg width="50" height="52" viewBox="0 0 50 52" fill="none" xmlns="http://www.w3.org/2000/svg">
<path d="M25 28.4375C26.2944 28.4375 27.3438 27.3462 27.3438 26C27.3438 24.6538 26.2944 23.5625 25 23.5625C23.7056 23.5625 22.6562 24.6538 22.6562 26C22.6562 27.3462 23.7056 28.4375 25 28.4375Z" fill="#8F00FF" stroke="#8F00FF" stroke-linecap="round" stroke-linejoin="round"/>
<path d="M25 14.625C26.2944 14.625 27.3438 13.5337 27.3438 12.1875C27.3438 10.8413 26.2944 9.75 25 9.75C23.7056 9.75 22.6562 10.8413 22.6562 12.1875C22.6562 13.5337 23.7056 14.625 25 14.625Z" fill="#8F00FF" stroke="#8F00FF" stroke-linecap="round" stroke-linejoin="round"/>
<path d="M25 42.25C26.2944 42.25 27.3438 41.1587 27.3438 39.8125C27.3438 38.4663 26.2944 37.375 25 37.375C23.7056 37.375 22.6562 38.4663 22.6562 39.8125C22.6562 41.1587 23.7056 42.25 25 42.25Z" fill="#8F00FF" stroke="#8F00FF" stroke-linecap="round" stroke-linejoin="round"/>
<path d="M11.7188 28.4375C13.0132 28.4375 14.0625 27.3462 14.0625 26C14.0625 24.6538 13.0132 23.5625 11.7188 23.5625C10.4243 23.5625 9.375 24.6538 9.375 26C9.375 27.3462 10.4243 28.4375 11.7188 28.4375Z" fill="#8F00FF" stroke="#8F00FF" stroke-linecap="round" stroke-linejoin="round"/>
<path d="M11.7188 14.625C13.0132 14.625 14.0625 13.5337 14.0625 12.1875C14.0625 10.8413 13.0132 9.75 11.7188 9.75C10.4243 9.75 9.375 10.8413 9.375 12.1875C9.375 13.5337 10.4243 14.625 11.7188 14.625Z" fill="#8F00FF" stroke="#8F00FF" stroke-linecap="round" stroke-linejoin="round"/>
<path d="M11.7188 42.25C13.0132 42.25 14.0625 41.1587 14.0625 39.8125C14.0625 38.4663 13.0132 37.375 11.7188 37.375C10.4243 37.375 9.375 38.4663 9.375 39.8125C9.375 41.1587 10.4243 42.25 11.7188 42.25Z" fill="#8F00FF" stroke="#8F00FF" stroke-linecap="round" stroke-linejoin="round"/>
<path d="M38.2812 28.4375C39.5757 28.4375 40.625 27.3462 40.625 26C40.625 24.6538 39.5757 23.5625 38.2812 23.5625C36.9868 23.5625 35.9375 24.6538 35.9375 26C35.9375 27.3462 36.9868 28.4375 38.2812 28.4375Z" fill="#8F00FF" stroke="#8F00FF" stroke-linecap="round" stroke-linejoin="round"/>
<path d="M38.2812 14.625C39.5757 14.625 40.625 13.5337 40.625 12.1875C40.625 10.8413 39.5757 9.75 38.2812 9.75C36.9868 9.75 35.9375 10.8413 35.9375 12.1875C35.9375 13.5337 36.9868 14.625 38.2812 14.625Z" fill="#8F00FF" stroke="#8F00FF" stroke-linecap="round" stroke-linejoin="round"/>
<path d="M38.2812 42.25C39.5757 42.25 40.625 41.1587 40.625 39.8125C40.625 38.4663 39.5757 37.375 38.2812 37.375C36.9868 37.375 35.9375 38.4663 35.9375 39.8125C35.9375 41.1587 36.9868 42.25 38.2812 42.25Z" fill="#8F00FF" stroke="#8F00FF" stroke-linecap="round" stroke-linejoin="round"/>
</svg>
