<svg fill="none" height="40" viewBox="0 0 41 40" width="41" xmlns="http://www.w3.org/2000/svg"><g fill="#8f00ff" stroke="#8f00ff" stroke-linecap="round" stroke-linejoin="round"><path d="m17 22.4375c1.2944 0 2.3438-1.0913 2.3438-2.4375s-1.0494-2.4375-2.3438-2.4375-2.3438 1.0913-2.3438 2.4375 1.0494 2.4375 2.3438 2.4375z"/><path d="m17 8.625c1.2944 0 2.3438-1.09131 2.3438-2.4375s-1.0494-2.4375-2.3438-2.4375-2.3438 1.09131-2.3438 2.4375 1.0494 2.4375 2.3438 2.4375z"/><path d="m17 36.25c1.2944 0 2.3438-1.0913 2.3438-2.4375s-1.0494-2.4375-2.3438-2.4375-2.3438 1.0913-2.3438 2.4375 1.0494 2.4375 2.3438 2.4375z"/><path d="m3.71875 22.4375c1.29442 0 2.34375-1.0913 2.34375-2.4375s-1.04933-2.4375-2.34375-2.4375-2.34375 1.0913-2.34375 2.4375 1.04933 2.4375 2.34375 2.4375z"/><path d="m3.71875 8.625c1.29442 0 2.34375-1.09131 2.34375-2.4375s-1.04933-2.4375-2.34375-2.4375-2.34375 1.09131-2.34375 2.4375 1.04933 2.4375 2.34375 2.4375z"/><path d="m3.71875 36.25c1.29442 0 2.34375-1.0913 2.34375-2.4375s-1.04933-2.4375-2.34375-2.4375-2.34375 1.0913-2.34375 2.4375 1.04933 2.4375 2.34375 2.4375z"/><path d="m30.2812 22.4375c1.2945 0 2.3438-1.0913 2.3438-2.4375s-1.0493-2.4375-2.3438-2.4375c-1.2944 0-2.3437 1.0913-2.3437 2.4375s1.0493 2.4375 2.3437 2.4375z"/><path d="m30.2812 8.625c1.2945 0 2.3438-1.09131 2.3438-2.4375s-1.0493-2.4375-2.3438-2.4375c-1.2944 0-2.3437 1.09131-2.3437 2.4375s1.0493 2.4375 2.3437 2.4375z"/><path d="m30.2812 36.25c1.2945 0 2.3438-1.0913 2.3438-2.4375s-1.0493-2.4375-2.3438-2.4375c-1.2944 0-2.3437 1.0913-2.3437 2.4375s1.0493 2.4375 2.3437 2.4375z"/></g></svg>