<svg fill="none" height="40" viewBox="0 0 40 40" width="40" xmlns="http://www.w3.org/2000/svg"><g stroke="#8f00ff"><path d="m39 20c0 5.0391-2.0018 9.8718-5.565 13.435s-8.3959 5.565-13.435 5.565-9.8718-2.0018-13.43503-5.565c-3.56319-3.5632-5.56497-8.3959-5.56496-13.435 0-5.0391 2.00178-9.8718 5.56497-13.43503 3.56322-3.56319 8.39592-5.56497 13.43502-5.56497s9.8718 2.00178 13.435 5.56497c3.5632 3.56323 5.565 8.39593 5.565 13.43503z" stroke-linecap="round" stroke-linejoin="round" stroke-width="2"/><path d="m39 20c0 5.0391-2.0018 9.8718-5.565 13.435s-8.3959 5.565-13.435 5.565-9.8718-2.0018-13.43503-5.565c-3.56319-3.5632-5.56497-8.3959-5.56496-13.435 0-5.0391 2.00178-9.8718 5.56497-13.43503 3.56322-3.56319 8.39592-5.56497 13.43502-5.56497s9.8718 2.00178 13.435 5.56497c3.5632 3.56323 5.565 8.39593 5.565 13.43503z" stroke-linecap="round" stroke-linejoin="round" stroke-width="2"/><path d="m13.668 24.2227 6.3333 4.2222 6.3333-4.2222" stroke-width="1.5"/><path d="m13.668 17.8906 6.3333 4.2222 6.3333-4.2222" stroke-width="1.5"/><path d="m13.668 11.5566 6.3333 4.2223 6.3333-4.2223" stroke-width="1.5"/></g><path clip-rule="evenodd" d="m20.75 16.7903v-9.45436h-1.5v9.45356l.7507.5004zm0 1.2019-.472.3146-.2773.1849-.2774-.1849-.4733-.3155v5.1328l.7507.5005.7493-.4996zm-1.5 11.4646v-5.1308l.4733.3155.2774.1849.2773-.1849.472-.3146v5.1308l-.7493.4995zm0 1.2018v2.0107h1.5v-2.0098l-.472.3147-.2773.1849-.2774-.1849z" fill="#8f00ff" fill-rule="evenodd"/></svg>