<svg fill="none" height="51" viewBox="0 0 50 51" width="50" xmlns="http://www.w3.org/2000/svg"><g stroke="#8f00ff" stroke-width="2"><path d="m43.75 25.2344c0 4.9728-1.9754 9.7419-5.4917 13.2582-3.5164 3.5163-8.2855 5.4918-13.2583 5.4918s-9.7419-1.9755-13.2583-5.4918c-3.51626-3.5163-5.4917-8.2854-5.4917-13.2582s1.97544-9.742 5.4918-13.2583c3.5163-3.51629 8.2854-5.49173 13.2582-5.49173s9.7419 1.97545 13.2583 5.49173c3.5163 3.5163 5.4917 8.2855 5.4917 13.2583z"/><path d="m43.75 25.2344c0 4.9728-1.9754 9.7419-5.4917 13.2582-3.5164 3.5163-8.2855 5.4918-13.2583 5.4918s-9.7419-1.9755-13.2583-5.4918c-3.51626-3.5163-5.4917-8.2854-5.4917-13.2582s1.97544-9.742 5.4918-13.2583c3.5163-3.51629 8.2854-5.49173 13.2582-5.49173s9.7419 1.97545 13.2583 5.49173c3.5163 3.5163 5.4917 8.2855 5.4917 13.2583z"/><path d="m18.75 32.5254 6.25 4.1667 6.25-4.1667"/><path d="m18.75 25.2344 6.25 4.1666 6.25-4.1666"/><path d="m18.75 17.9434 6.25 4.1666 6.25-4.1666"/></g><path d="m27.0827 15.4518-2.0834 1.4492-2.0833-1.4492 2.0833-2.7174z" fill="#8f00ff"/></svg>