<svg fill="none" height="714" viewBox="0 0 2137 714" width="2137" xmlns="http://www.w3.org/2000/svg" xmlns:xlink="http://www.w3.org/1999/xlink"><clipPath id="a"><path d="m0 0h2137v714h-2137z"/></clipPath><g clip-path="url(#a)"><path d="m33 185c0-11.201 0-16.802 2.1799-21.08 1.9174-3.763 4.977-6.823 8.7403-8.74 4.2782-2.18 9.8787-2.18 21.0798-2.18h70c39.204 0 58.806 0 73.779 7.63 13.172 6.711 23.88 17.419 30.591 30.591 7.63 14.973 7.63 34.575 7.63 73.779v449h-70c-50.405 0-75.607 0-94.8591-9.809-16.9346-8.629-30.7029-22.397-39.3315-39.332-9.8094-19.252-9.8094-44.454-9.8094-94.859z" fill="#ffc342"/><path d="m425 72.4117c0-15.3051 0-22.9576-2.727-28.9085-2.995-6.5372-8.239-11.781-14.776-14.7764-5.951-2.7268-13.604-2.7268-28.909-2.7268-71.424 0-107.136 0-134.907 12.7249-30.506 13.9785-54.978 38.4497-68.956 68.9561-12.725 27.771-12.725 63.483-12.725 134.907v471.412h39c78.407 0 117.611 0 147.559-15.259 26.342-13.422 47.76-34.84 61.182-61.182 15.259-29.948 15.259-69.152 15.259-147.559z" fill="#eb5523"/><path d="m0 0h50c39.2037 0 58.806 0 73.779 7.62954 13.172 6.71116 23.88 17.41976 30.591 30.59116 7.63 14.9738 7.63 34.5756 7.63 73.7793v41h-50c-39.2037 0-58.8055 0-73.7793-7.63-13.1714-6.711-23.88-17.419-30.59116-30.591-7.62954-14.9735-7.62954-34.5753-7.62954-73.779z" fill="#439673"/><g fill="#fff"><path d="m2137 670h-108v-670h108z"/><path d="m1741 681c-132.3 0-225-96.136-225-233.601 0-139.263 90.9-235.399 221.4-235.399 133.2 0 217.8 88.948 217.8 227.312v33.244l-334.8.898c8.1 78.167 49.5 117.699 122.4 117.699 60.3 0 99.9-23.36 112.5-65.588h101.7c-18.9 97.035-99.9 155.435-216 155.435zm-2.7-379.153c-64.8 0-104.4 35.04-115.2 101.527h223.2c0-61.096-42.3-101.527-108-101.527z"/><path d="m1339.59 226h110.41v443.333h-102.26l-8.15-59.23c-27.15 42.179-85.06 70.897-144.79 70.897-103.17 0-163.8-69.103-163.8-177.692v-277.308h110.41v238.718c0 84.359 33.48 118.462 95.02 118.462 69.68 0 103.16-40.385 103.16-124.744z"/><path d="m688 225.134h63.946v-54.032c0-120.6719 63.945-171.102 160.314-171.102 17.112 0 37.827.900513 56.74 4.50267v93.65593h-38.728c-55.839 0-69.349 28.8174-69.349 72.9434v54.032h106.276v91.855h-106.276v353.011h-108.977v-353.011h-63.946z"/></g></g></svg>