<svg width="527" height="177" viewBox="0 0 527 177" fill="none" xmlns="http://www.w3.org/2000/svg">
<g clip-path="url(#clip0_647_574)">
<path d="M7.86572 45.8605C7.86572 43.0838 7.86572 41.6954 8.3853 40.6348C8.84234 39.7019 9.57161 38.9435 10.4686 38.4681C11.4883 37.9277 12.8232 37.9277 15.493 37.9277H32.1778C41.5221 37.9277 46.1943 37.9277 49.7634 39.8191C52.9028 41.4828 55.4553 44.1374 57.0549 47.4026C58.8734 51.1146 58.8734 55.9739 58.8734 65.6924V176.999H42.1887C30.1745 176.999 24.1674 176.999 19.5786 174.567C15.5422 172.428 12.2605 169.015 10.2038 164.817C7.86572 160.045 7.86572 153.797 7.86572 141.302V45.8605Z" fill="#FFC342"/>
<path d="M101.3 17.9507C101.3 14.1566 101.3 12.2596 100.65 10.7843C99.9364 9.16377 98.6865 7.86383 97.1284 7.12128C95.7099 6.44531 93.8859 6.44531 90.2379 6.44531C73.2138 6.44531 64.7017 6.44531 58.0824 9.59981C50.8109 13.0651 44.9781 19.1315 41.6463 26.6941C38.6133 33.5785 38.6133 42.4314 38.6133 60.1374V177H47.9091C66.5978 177 75.9421 177 83.0802 173.217C89.3591 169.89 94.464 164.581 97.6632 158.05C101.3 150.626 101.3 140.908 101.3 121.471V17.9507Z" fill="#EB5523"/>
<path d="M0 0H11.9177C21.262 0 25.9342 0 29.5033 1.89136C32.6427 3.55504 35.1951 6.20971 36.7948 9.47487C38.6133 13.1869 38.6133 18.0461 38.6133 27.7647V37.9286H26.6956C17.3513 37.9286 12.6791 37.9286 9.11004 36.0372C5.9706 34.3735 3.41815 31.7189 1.81853 28.4537C0 24.7417 0 19.8824 0 10.1639V0Z" fill="#439673"/>
<path d="M518.181 174.025H491.724V3.71875H518.181V174.025Z" fill="white"/>
<path d="M421.555 176.999C389.234 176.999 366.588 152.506 366.588 117.484C366.588 82.0044 388.795 57.5117 420.676 57.5117C453.216 57.5117 473.884 80.1731 473.884 115.424V123.894L392.093 124.123C394.072 144.037 404.185 154.109 421.995 154.109C436.726 154.109 446.4 148.157 449.479 137.399H474.324C469.706 162.12 449.918 176.999 421.555 176.999ZM420.896 80.402C405.065 80.402 395.391 89.3293 392.752 106.268H447.28C447.28 90.7027 436.946 80.402 420.896 80.402Z" fill="white"/>
<path d="M323.261 60.9824H350.142V174.024H325.244L323.261 158.922C316.651 169.677 302.549 176.999 288.007 176.999C262.889 176.999 248.126 159.379 248.126 131.691V60.9824H275.007V121.851C275.007 143.361 283.16 152.057 298.142 152.057C315.108 152.057 323.261 141.759 323.261 120.249V60.9824Z" fill="white"/>
<path d="M163.987 60.9455H179.609V47.2111C179.609 16.5375 195.23 3.71875 218.772 3.71875C222.952 3.71875 228.013 3.94765 232.633 4.86328V28.6696H223.172C209.531 28.6696 206.231 35.9946 206.231 47.2111V60.9455H232.193V84.294H206.231V174.025H179.609V84.294H163.987V60.9455Z" fill="white"/>
</g>
<defs>
<clipPath id="clip0_647_574">
<rect width="527" height="177" fill="white"/>
</clipPath>
</defs>
</svg>
