<svg width="2116" height="742" viewBox="0 0 2116 742" fill="none" xmlns="http://www.w3.org/2000/svg">
<path d="M33 185C33 173.799 33 168.198 35.1799 163.92C37.0973 160.157 40.1569 157.097 43.9202 155.18C48.1984 153 53.7989 153 65 153H135C174.204 153 193.806 153 208.779 160.63C221.951 167.341 232.659 178.049 239.37 191.221C247 206.194 247 225.796 247 265V714H177C126.595 714 101.393 714 82.1409 704.191C65.2063 695.562 51.438 681.794 42.8094 664.859C33 645.607 33 620.405 33 570V185Z" fill="#FFC342"/>
<path d="M425 72.4117C425 57.1066 425 49.4541 422.273 43.5032C419.278 36.966 414.034 31.7222 407.497 28.7268C401.546 26 393.893 26 378.588 26C307.164 26 271.452 26 243.681 38.7249C213.175 52.7034 188.703 77.1746 174.725 107.681C162 135.452 162 171.164 162 242.588V714H201C279.407 714 318.611 714 348.559 698.741C374.901 685.319 396.319 663.901 409.741 637.559C425 607.611 425 568.407 425 490V72.4117Z" fill="#EB5523"/>
<path d="M0 0H50C89.2037 0 108.806 0 123.779 7.62954C136.951 14.3407 147.659 25.0493 154.37 38.2207C162 53.1945 162 72.7963 162 112V153H112C72.7963 153 53.1945 153 38.2207 145.37C25.0493 138.659 14.3407 127.951 7.62954 114.779C0 99.8055 0 80.2037 0 41V0Z" fill="#439673"/>
<path d="M2112.46 714H1998.72V14.6399H2112.46V714Z" fill="white"/>
<path d="M1699.34 726.22C1561.16 726.22 1464.34 625.64 1464.34 481.82C1464.34 336.12 1559.28 235.54 1695.58 235.54C1834.7 235.54 1923.06 328.6 1923.06 473.36V508.14L1573.38 509.08C1581.84 590.86 1625.08 632.22 1701.22 632.22C1764.2 632.22 1805.56 607.78 1818.72 563.6H1924.94C1905.2 665.12 1820.6 726.22 1699.34 726.22ZM1696.52 329.54C1628.84 329.54 1587.48 366.2 1576.2 435.76H1809.32C1809.32 371.84 1765.14 329.54 1696.52 329.54Z" fill="white"/>
<path d="M1279.66 249.64H1394.34V714H1288.12L1279.66 651.96C1251.46 696.14 1191.3 726.22 1129.26 726.22C1022.1 726.22 959.115 653.84 959.115 540.1V249.64H1073.8V499.68C1073.8 588.04 1108.58 623.76 1172.5 623.76C1244.88 623.76 1279.66 581.46 1279.66 493.1V249.64Z" fill="white"/>
<path d="M600.16 249.64H666.9V193.24C666.9 67.2799 733.64 14.6399 834.22 14.6399C852.08 14.6399 873.7 15.5799 893.44 19.3399V117.1H853.02C794.74 117.1 780.64 147.18 780.64 193.24V249.64H891.56V345.52H780.64V714H666.9V345.52H600.16V249.64Z" fill="white"/>
</svg>
