<svg fill="none" height="56" viewBox="0 0 56 56" width="56" xmlns="http://www.w3.org/2000/svg"><path d="m40.9057 1.33398h-25.8112c-3.6453.014-7.13739 1.46831-9.71505 4.04598-2.57767 2.57767-4.03198 6.06974-4.04597 9.71504v2.2953c-.00621.9748.26532 1.9312.78283 2.7574.5175.8261 1.25957 1.4878 2.13939 1.9075.65028.2919 1.20427.7624 1.59746 1.3569s.60939 1.2884.62343 2.001v25.79c0 .9188.36497 1.7999 1.01463 2.4496.64966.6496 1.53078 1.0146 2.44953 1.0146h36.12925c.9188 0 1.7999-.365 2.4496-1.0146.6496-.6497 1.0146-1.5308 1.0146-2.4496v-25.8112c.0171-.7078.2336-1.3964.6246-1.9867.391-.5902.9406-1.0582 1.5857-1.35.8765-.4182 1.6164-1.0766 2.1337-1.8986.5172-.8219.7907-1.7738.7885-2.745v-2.3166c-.014-3.6453-1.4683-7.13737-4.046-9.71504-2.5776-2.57767-6.0697-4.03198-9.715-4.04598z" fill="#e5cfa5" stroke="#d3a35a" stroke-miterlimit="10" stroke-width="1.5"/><g fill="#d3a35a"><circle cx="41.3333" cy="25.3333" r="1.33333"/><circle cx="41.3333" cy="35.9993" r="1.33333"/><circle cx="33.3333" cy="25.3333" r="1.33333"/><circle cx="33.3333" cy="35.9993" r="1.33333"/><circle cx="37.3333" cy="30.6673" r="1.33333"/><circle cx="37.3333" cy="41.3333" r="1.33333"/></g></svg>