<svg fill="none" height="56" viewBox="0 0 56 56" width="56" xmlns="http://www.w3.org/2000/svg"><path clip-rule="evenodd" d="m47.7027 17.0062c1.3833-.2047 2.6845-.7828 3.7636-1.6722 2.7724 5.1362 3.7832 11.0402 2.8771 16.8062-.906 5.766-3.6788 11.0754-7.893 15.1138-4.2141 4.0384-9.6368 6.5826-15.4361 7.2424-5.7994.6597-11.655-.6015-16.6685-3.5901-5.01357-2.9886-8.90812-7.5395-11.08617-12.9547-2.17806-5.4151-2.519308-11.3952-.9714-17.023 1.5479-5.6277 4.89946-10.5922 9.54047-14.13172 4.641-3.53954 10.3152-5.45864 16.1519-5.4629h.2286c-.1628.59645-.2523 1.21049-.2667 1.82857 0 2.03838.8098 3.99327 2.2511 5.43462 1.4414 1.44133 3.3962 2.25113 5.4346 2.25113 1.1409-.001 2.267-.2581 3.2953-.7524.126 1.3926.6296 2.7245 1.4565 3.8522s1.9458 2.0084 3.2361 2.5473c1.2904.5388 2.7033.7154 4.0866.5108zm-12.0364 10.9946c0 4.2447-3.441 7.6857-7.6857 7.6857s-7.6857-3.441-7.6857-7.6857 3.441-7.6857 7.6857-7.6857 7.6857 3.441 7.6857 7.6857z" fill="#d148b2" fill-rule="evenodd"/><path d="m51.4663 15.334.5867-.3167c-.0947-.1754-.263-.2993-.4587-.3376-.1956-.0383-.3982.013-.552.1398zm-3.7636 1.6722.0976.6595zm-1.2523 30.2478.4613.4813zm-32.1046 3.6523.3413-.5726zm-11.08617-12.9547-.61851.2488zm-.9714-17.023-.6428-.1768zm9.54047-14.13172.4043.5301zm16.1519-5.4629v-.666662h-.0005zm.2286 0 .6431.1755c.0547-.20047.0128-.41498-.1133-.580124-.1261-.165145-.322-.262038-.5298-.262038zm-.2667 1.82857-.6665-.01549c-.0001.00516-.0002.01033-.0002.01549zm2.2511 5.43462-.4714.4714v.00001zm5.4346 2.25113v.6666h.0006zm3.2953-.7524.6639-.0601c-.0197-.21766-.1448-.41185-.3349-.51972s-.4209-.11573-.6179-.02103zm12.1188 4.7236c-.9855.8123-2.1739 1.3403-3.4372 1.5272l.1952 1.319c1.5033-.2224 2.9174-.8507 4.09-1.8173zm3.9597 17.4242c.9287-5.9101-.1073-11.9617-2.949-17.2264l-1.1734.6333c2.7032 5.0079 3.6886 10.7643 2.8052 16.3861zm-8.0903 15.4916c4.3195-4.1393 7.1616-9.5815 8.0903-15.4916l-1.3172-.207c-.8834 5.6218-3.5869 10.7986-7.6956 14.736zm-15.8221 7.4235c5.9443-.6763 11.5026-3.2841 15.8221-7.4235l-.9225-.9626c-4.1088 3.9374-9.396 6.418-15.0503 7.0613zm-17.0852-3.6798c5.1389 3.0633 11.1409 4.356 17.0852 3.6798l-.1507-1.3248c-5.6543.6432-11.3636-.5864-16.2518-3.5003zm-11.36328-13.2786c2.2325 5.5505 6.22441 10.2152 11.36328 13.2786l.6827-1.1453c-4.88818-2.9139-8.68536-7.3511-10.80896-12.6308zm-.99569-17.4486c-1.586601 5.7684-1.236818 11.8981.99569 17.4486l1.23702-.4975c-2.1236-5.2798-2.45632-11.1104-.94712-16.5975zm9.77897-14.48501c-4.75702 3.62802-8.19237 8.71661-9.77897 14.48501l1.28559.3536c1.50921-5.487 4.77698-10.3274 9.30198-13.77842zm16.5557-5.599472c-5.9826.004357-11.7986 1.971442-16.5557 5.599472l.8086 1.06019c4.525-3.45105 10.0573-5.32218 15.7481-5.32633zm.2291 0h-.2286v1.333332h.2286zm.3998 2.510732c.0131-.564.0948-1.12431.2433-1.66857l-1.2863-.35099c-.177.64863-.2743 1.3164-.29 1.98857zm2.056 4.94772c-1.3163-1.31633-2.0558-3.10165-2.0558-4.96322h-1.3334c0 2.21519.88 4.33965 2.4464 5.90602zm4.9632 2.05583c-1.8615 0-3.6469-.73951-4.9632-2.05583l-.9428.94281c1.5664 1.56632 3.6908 2.44632 5.906 2.44632zm3.0064-.68655c-.9383.45109-1.9659.68575-3.0069.68655l.0011 1.3333c1.2407-.001 2.4653-.2806 3.5835-.8182zm2.283 4.05885c-.7552-1.0299-1.2151-2.2462-1.3302-3.5181l-1.3279.1202c.137 1.5134.6842 2.9609 1.5828 4.1863zm2.9554 2.3263c-1.1784-.4922-2.2002-1.2965-2.9554-2.3263l-1.0753.7884c.8987 1.2255 2.1146 2.1826 3.5169 2.7682zm3.7321.4665c-1.2633.1869-2.5536.0256-3.7321-.4665l-.5138 1.2303c1.4023.5856 2.9378.7776 4.4411.5552zm-19.6245 20.0065c4.6129 0 8.3524-3.7395 8.3524-8.3524h-1.3333c0 3.8765-3.1426 7.0191-7.0191 7.0191zm-8.3523-8.3524c0 4.6129 3.7394 8.3524 8.3523 8.3524v-1.3333c-3.8765 0-7.019-3.1426-7.019-7.0191zm8.3523-8.3524c-4.6129 0-8.3523 3.7395-8.3523 8.3524h1.3333c0-3.8765 3.1425-7.019 7.019-7.019zm8.3524 8.3524c0-4.6129-3.7395-8.3524-8.3524-8.3524v1.3334c3.8765 0 7.0191 3.1425 7.0191 7.019z" fill="#f36ed5"/></svg>