<svg width="56" height="56" viewBox="0 0 56 56" fill="none" xmlns="http://www.w3.org/2000/svg">
<path d="M55.0758 55H1L1 27.9621C1 14.4079 10.9736 3.18312 23.9822 1.22632C25.3052 1.02732 25.3076 3.62796 28.0379 3.62796C30.7682 3.62796 30.7707 1.02732 32.0936 1.22632C45.1022 3.18312 55.0758 14.4079 55.0758 27.9621V55Z" fill="#F33434" stroke="#FFC5A4" stroke-width="1.25" stroke-linejoin="round"/>
<path d="M33.4459 33.3696C38.8535 39.3427 39.419 44.1848 28.0384 44.1848C16.6577 44.1848 17.2232 39.3427 22.6308 33.3696" stroke="#FFC5A4" stroke-width="1.25" stroke-linejoin="round"/>
<circle cx="36.1491" cy="17.1469" r="2.70379" fill="#FFC5A4"/>
<path d="M55.0762 27.9621C51.3894 31.1 40.6778 33.3696 28.0383 33.3696C15.3987 33.3696 4.68707 31.1 1.00035 27.962" stroke="#FFC5A4" stroke-width="1.25" stroke-linejoin="round"/>
<path d="M22.6299 44.1848L22.6299 55" stroke="#FFC5A4" stroke-width="1.25" stroke-linejoin="round"/>
</svg>
