<svg fill="none" height="56" viewBox="0 0 56 56" width="56" xmlns="http://www.w3.org/2000/svg"><path d="m54.6667 27.9987c0 14.7276-11.9391 26.6667-26.6667 26.6667s-26.66662-11.9391-26.66663-26.6667c.00001-14.7276 11.93903-26.66667 26.66663-26.66667s26.6667 11.93907 26.6667 26.66667z" fill="#ec9e2a" stroke="#ffd66d" stroke-linejoin="round" stroke-width="1.5"/><g clip-rule="evenodd" fill="#ffd66d" fill-rule="evenodd"><path d="m18.3601 3.12891c-.1899.75005-.6478 1.43493-1.3422 1.89791l-.2425.16163c-.817.5447-.817 1.7453 0 2.28999 1.5977 1.0651 1.8215 3.32556.4638 4.68336l-.5943.5942c-.9215.9215-.7696 2.4557.3147 3.1786l2.0583 1.3721-.9245 1.3868-2.0583-1.3722c-1.9594-1.3063-2.2339-4.0786-.5687-5.7438l.5942-.5943c.6141-.614.5129-1.63631-.2097-2.11801-1.4203-.94685-1.724-2.79007-.9111-4.12027 1.0945-.61603 2.237-1.15703 3.4203-1.61601z"/><path d="m28.1095 1.33211.086.12898c.4811.72163.2861 1.69662-.4355 2.17771l-.2425.16163c-1.8066 1.2044-1.8066 3.85909 0 5.06349.7225.48169.8238 1.50398.2097 2.11808l-.5943.5943c-1.6651 1.6651-1.3906 4.4375.5688 5.7437l2.0583 1.3722.9245-1.3867-2.0583-1.3722c-1.0843-.7229-1.2362-2.257-.3147-3.1785l.5942-.5943c1.3578-1.3578 1.134-3.61824-.4637-4.68333-.817-.5447-.817-1.74529 0-2.28999l.2425-.16163c1.2126-.8084 1.7038-2.29337 1.3067-3.62045-.6215-.04588-1.249-.07045-1.8817-.07299z"/><path d="m40.8435 4.62545c-.1478.14733-.3121.28244-.4924.40261l-.2424.16163c-.8171.54469-.8171 1.74529 0 2.28998 1.5976 1.0651 1.8215 3.32553.4637 4.68333l-.5943.5943c-.9215.9215-.7696 2.4556.3148 3.1785l2.0582 1.3722-.9245 1.3867-2.0582-1.3722c-1.9595-1.3062-2.234-4.0786-.5688-5.7437l.5943-.5943c.614-.6141.5128-1.63638-.2097-2.11808-1.8066-1.2044-1.8066-3.85908 0-5.06348l.0149-.00997c.5589.25898 1.1073.53674 1.6444.83248z"/></g><ellipse cx="28" cy="30.7769" fill="#ec9e2a" rx="25.5556" ry="7.22222" stroke="#ffd66d" stroke-linejoin="round" stroke-width="1.5"/><path d="m2.61938 33.2207c3.46074-2.9014 13.51572-5 25.38052-5s21.9198 2.0986 25.3805 5" stroke="#ffd66d" stroke-linejoin="round" stroke-width="1.5"/></svg>