<svg width="40" height="40" viewBox="0 0 40 40" fill="none" xmlns="http://www.w3.org/2000/svg">
<rect width="40" height="40" rx="10" fill="#303030"/>
<path fill-rule="evenodd" clip-rule="evenodd" d="M28.3611 15.5171C28.818 16.4248 28.474 17.5423 27.5927 18.0129L14.0621 25.239C13.1808 25.7096 12.096 25.3553 11.6391 24.4475C11.1822 23.5398 11.5262 22.4224 12.4074 21.9518L25.9381 14.7257C26.8193 14.255 27.9042 14.6094 28.3611 15.5171Z" fill="#00E9FF"/>
<path fill-rule="evenodd" clip-rule="evenodd" d="M28.3611 9.05226C28.818 9.96 28.474 11.0774 27.5927 11.548L14.0621 18.7741C13.1808 19.2448 12.096 18.8904 11.6391 17.9827C11.1822 17.0749 11.5262 15.9575 12.4074 15.4869L25.9381 8.26082C26.8193 7.79018 27.9042 8.14451 28.3611 9.05226Z" fill="#EEE62C"/>
<path fill-rule="evenodd" clip-rule="evenodd" d="M19.9143 26.5297C20.3712 27.4374 20.0272 28.5548 19.146 29.0254L14.1205 31.7093C13.2392 32.18 12.1544 31.8256 11.6975 30.9179C11.2406 30.0101 11.5846 28.8927 12.4658 28.4221L17.4913 25.7382C18.3726 25.2676 19.4574 25.6219 19.9143 26.5297Z" fill="#2DFB8C"/>
</svg>
