<svg width="42" height="42" viewBox="0 0 42 42" fill="none" xmlns="http://www.w3.org/2000/svg">
<g clip-path="url(#clip0_4676_61927)">
<circle cx="8.16663" cy="8.16699" r="2.25" fill="white" stroke="white"/>
<path d="M23.25 8.16699C23.25 9.40963 22.2426 10.417 21 10.417C19.7574 10.417 18.75 9.40963 18.75 8.16699C18.75 6.92435 19.7574 5.91699 21 5.91699C22.2426 5.91699 23.25 6.92435 23.25 8.16699Z" fill="white" stroke="white"/>
<path d="M36.0833 8.16699C36.0833 9.40963 35.0759 10.417 33.8333 10.417C32.5906 10.417 31.5833 9.40963 31.5833 8.16699C31.5833 6.92435 32.5906 5.91699 33.8333 5.91699C35.0759 5.91699 36.0833 6.92435 36.0833 8.16699Z" fill="white" stroke="white"/>
<path d="M10.4166 33.834C10.4166 35.0766 9.40927 36.084 8.16663 36.084C6.92399 36.084 5.91663 35.0766 5.91663 33.834C5.91663 32.5913 6.92399 31.584 8.16663 31.584C9.40927 31.584 10.4166 32.5913 10.4166 33.834Z" fill="white" stroke="white"/>
<circle cx="21" cy="33.834" r="2.25" fill="white" stroke="white"/>
<circle cx="33.8333" cy="33.834" r="2.25" fill="white" stroke="white"/>
<path d="M10.4166 21C10.4166 22.2426 9.40927 23.25 8.16663 23.25C6.92399 23.25 5.91663 22.2426 5.91663 21C5.91663 19.7574 6.92399 18.75 8.16663 18.75C9.40927 18.75 10.4166 19.7574 10.4166 21Z" fill="white" stroke="white"/>
<circle cx="21" cy="21" r="2.25" fill="white" stroke="white"/>
<circle cx="33.8333" cy="21" r="2.25" fill="white" stroke="white"/>
</g>
<defs>
<clipPath id="clip0_4676_61927">
<rect width="42" height="42" fill="white"/>
</clipPath>
</defs>
</svg>
