<svg width="80" height="117" viewBox="0 0 80 117" fill="none" xmlns="http://www.w3.org/2000/svg">
<path d="M11.8848 74.4336C11.8848 78.0703 12.5228 81.1169 13.7988 83.5732C15.0749 85.9977 17.0208 87.9437 19.6367 89.4111C20.7533 90.0173 21.5986 90.6393 22.1729 91.2773C22.7471 91.8835 23.2575 92.8405 23.7041 94.1484L25.7617 100.8C26.4635 103.001 27.9788 104.102 30.3076 104.102H50.3574C52.75 104.102 54.2493 103.001 54.8555 100.8L57.0088 94.1484C57.3916 92.8405 57.8701 91.8835 58.4443 91.2773C59.0186 90.6393 59.8639 90.0173 60.9805 89.4111C63.6283 87.9437 65.5742 85.9977 66.8184 83.5732C68.0944 81.1169 68.7324 78.0703 68.7324 74.4336V42.6123C68.7324 38.9437 68.0944 35.8971 66.8184 33.4727C65.5742 31.0163 63.6283 29.0544 60.9805 27.5869C59.8639 26.9808 59.0186 26.3747 58.4443 25.7686C57.8701 25.1305 57.3916 24.1576 57.0088 22.8496L54.8555 16.1982C54.2493 13.9652 52.75 12.8486 50.3574 12.8486H30.3076C27.9788 12.8486 26.4635 13.9652 25.7617 16.1982L23.7041 22.8496C23.2575 24.1576 22.7471 25.1305 22.1729 25.7686C21.6305 26.3747 20.7852 26.9808 19.6367 27.5869C17.0208 29.0544 15.0749 31.0163 13.7988 33.4727C12.5228 35.8971 11.8848 38.9437 11.8848 42.6123V74.4336ZM15.2822 74.0986V42.8994C15.2822 38.4971 16.5104 35.0518 18.9668 32.5635C21.4551 30.0752 24.9004 28.8311 29.3027 28.8311H51.4102C55.7806 28.8311 59.194 30.0752 61.6504 32.5635C64.1068 35.0518 65.335 38.4971 65.335 42.8994V74.0986C65.335 78.501 64.1068 81.9463 61.6504 84.4346C59.194 86.9229 55.7806 88.167 51.4102 88.167H29.3027C24.9004 88.167 21.4551 86.9229 18.9668 84.4346C16.5104 81.9463 15.2822 78.501 15.2822 74.0986ZM67.249 55.6758H69.3066C70.3275 55.6758 71.141 55.3408 71.7471 54.6709C72.3532 54.001 72.6562 53.1077 72.6562 51.9912V45.1963C72.6562 44.1117 72.3532 43.2344 71.7471 42.5645C71.141 41.8945 70.3275 41.5596 69.3066 41.5596H67.249V55.6758Z" fill="black"/>
</svg>
