<svg width="80" height="117" viewBox="0 0 80 117" fill="none" xmlns="http://www.w3.org/2000/svg">
<path d="M2.38867 97.2588C2.38867 101.246 3.47331 104.309 5.64258 106.446C7.81185 108.584 10.9062 109.652 14.9258 109.652H65.1221C69.1416 109.652 72.2201 108.584 74.3574 106.446C76.5267 104.309 77.6113 101.246 77.6113 97.2588V19.835C77.6113 15.8473 76.5267 12.7848 74.3574 10.6475C72.2201 8.51009 69.1416 7.44141 65.1221 7.44141H14.9258C10.9062 7.44141 7.81185 8.51009 5.64258 10.6475C3.47331 12.7848 2.38867 15.8473 2.38867 19.835V97.2588ZM5.92969 96.876V20.2178C5.92969 17.1872 6.71126 14.8903 8.27441 13.3271C9.86947 11.7321 12.1823 10.9346 15.2129 10.9346H64.7871C67.8496 10.9346 70.1624 11.7321 71.7256 13.3271C73.3206 14.8903 74.1182 17.1872 74.1182 20.2178V96.876C74.1182 99.9066 73.3206 102.203 71.7256 103.767C70.1624 105.33 67.8496 106.111 64.7871 106.111H15.2129C12.1823 106.111 9.86947 105.33 8.27441 103.767C6.71126 102.203 5.92969 99.9066 5.92969 96.876ZM27.0322 102.475H52.9678C53.3825 102.475 53.7334 102.331 54.0205 102.044C54.3076 101.789 54.4512 101.454 54.4512 101.039C54.4512 100.624 54.3076 100.273 54.0205 99.9863C53.7334 99.7311 53.3825 99.6035 52.9678 99.6035H27.0322C26.6175 99.6035 26.2666 99.7311 25.9795 99.9863C25.7243 100.273 25.5967 100.624 25.5967 101.039C25.5967 101.454 25.7243 101.789 25.9795 102.044C26.2666 102.331 26.6175 102.475 27.0322 102.475Z" fill="black"/>
</svg>
