<svg width="80" height="117" viewBox="0 0 80 117" fill="none" xmlns="http://www.w3.org/2000/svg">
<path d="M25.1875 105.824H55.8604C59.6247 105.824 62.4958 104.835 64.4736 102.857C66.4834 100.88 67.4883 98.0085 67.4883 94.2441V22.6582C67.4883 18.9258 66.4834 16.0706 64.4736 14.0928C62.4958 12.1149 59.6247 11.126 55.8604 11.126H25.1875C21.3913 11.126 18.4883 12.1149 16.4785 14.0928C14.5007 16.0706 13.5117 18.9258 13.5117 22.6582V94.2441C13.5117 98.0085 14.5007 100.88 16.4785 102.857C18.4883 104.835 21.3913 105.824 25.1875 105.824ZM25.4746 102.331C22.5716 102.331 20.4342 101.661 19.0625 100.321C17.7227 98.9814 17.0527 96.876 17.0527 94.0049V22.9453C17.0527 20.0742 17.7227 17.9688 19.0625 16.6289C20.4342 15.2891 22.5716 14.6191 25.4746 14.6191H31.0732C31.6794 14.6191 31.9824 14.9222 31.9824 15.5283V16.1025C31.9824 16.8682 32.2217 17.4902 32.7002 17.9688C33.1787 18.4473 33.7848 18.6865 34.5186 18.6865H46.4814C47.2471 18.6865 47.8532 18.4473 48.2998 17.9688C48.7783 17.4902 49.0176 16.8682 49.0176 16.1025V15.5283C49.0176 14.9222 49.3206 14.6191 49.9268 14.6191H55.5254C58.4284 14.6191 60.5498 15.2891 61.8896 16.6289C63.2614 17.9688 63.9473 20.0742 63.9473 22.9453V94.0049C63.9473 96.876 63.2614 98.9814 61.8896 100.321C60.5498 101.661 58.4284 102.331 55.5254 102.331H25.4746ZM30.9297 99.1729H50.1182C50.501 99.1729 50.8359 99.0293 51.123 98.7422C51.4102 98.487 51.5537 98.152 51.5537 97.7373C51.5537 97.3226 51.4102 96.9717 51.123 96.6846C50.8359 96.4294 50.501 96.3018 50.1182 96.3018H30.9297C30.515 96.3018 30.1641 96.4294 29.877 96.6846C29.5898 96.9717 29.4463 97.3226 29.4463 97.7373C29.4463 98.152 29.5898 98.487 29.877 98.7422C30.1641 99.0293 30.515 99.1729 30.9297 99.1729Z" fill="black"/>
</svg>
