<svg fill="none" height="242" viewBox="0 0 241 242" width="241" xmlns="http://www.w3.org/2000/svg"><path d="m40.1666 30.127v-6c-3.3137 0-6 2.6862-6 6zm160.6664 0h6c0-3.3138-2.686-6-6-6zm-80.333 180.75-1.455 5.821 1.455.364 1.455-.364zm-80.3334-174.75h160.6664v-12h-160.6664zm80.3334 174.75c1.455-5.821 1.458-5.82 1.46-5.82.001 0 .003.001.004.001.001.001.002.001.001.001-.002-.001-.008-.003-.019-.005-.022-.006-.063-.017-.123-.033-.118-.031-.309-.084-.567-.158-.518-.149-1.306-.386-2.326-.723-2.041-.674-5.002-1.746-8.577-3.31-7.163-3.134-16.7095-8.208-26.2362-15.948-18.9101-15.365-37.9502-41.358-37.9502-84.463h-12c0 47.27 21.1266 76.505 42.3831 93.776 10.5567 8.577 21.0936 14.173 28.9933 17.629 3.956 1.731 7.271 2.934 9.623 3.711 1.177.388 2.115.671 2.774.861.33.095.59.166.776.216.092.025.167.044.222.059.027.007.05.012.068.017.009.002.017.004.023.006.003.001.007.002.009.002.003.001.007.002 1.462-5.819zm-74.3334-110.458v-70.292h-12v70.292zm148.6664-70.292v70.292h12v-70.292zm0 70.292c0 43.105-19.04 69.098-37.95 84.463-9.527 7.74-19.073 12.814-26.236 15.948-3.575 1.564-6.536 2.636-8.577 3.31-1.02.337-1.808.574-2.326.723-.258.074-.449.127-.568.158-.059.016-.1.027-.122.033-.011.002-.017.004-.019.005-.001 0 0 0 .001-.001.001 0 .003-.001.004-.001.002 0 .005-.001 1.46 5.82s1.458 5.82 1.462 5.819c.002 0 .006-.001.009-.002.006-.002.014-.004.023-.006.018-.005.041-.01.068-.017.055-.015.13-.034.222-.059.186-.05.446-.121.776-.216.659-.19 1.597-.473 2.774-.861 2.352-.777 5.667-1.98 9.623-3.711 7.9-3.456 18.437-9.052 28.993-17.629 21.257-17.271 42.383-46.506 42.383-93.776z" fill="#b8ab9c"/><circle cx="120.5" cy="100.419" r="20.0833" stroke="#b8ab9c" stroke-linejoin="round" stroke-width="12"/><path clip-rule="evenodd" d="m114.5 168.225 12-12v-35.723h-12z" fill="#b8ab9c" fill-rule="evenodd"/></svg>