<svg width="42" height="42" viewBox="0 0 42 42" fill="none" xmlns="http://www.w3.org/2000/svg">
<g clip-path="url(#clip0_4676_61926)">
<path d="M21 5.5C24.6227 5.5 28.1448 6.69228 31.0226 8.89285C33.9004 11.0934 35.974 14.1799 36.9234 17.6761C37.8727 21.1722 37.6451 24.8836 36.2756 28.2375C34.9061 31.5914 32.4708 34.4014 29.3456 36.2338C26.2205 38.0661 22.5791 38.8191 18.9835 38.3763C15.3879 37.9336 12.038 36.3198 9.45067 33.784C6.86337 31.2482 5.18253 27.9314 4.66756 24.3455C4.15258 20.7595 4.8321 17.1038 6.60123 13.9424" stroke="white" stroke-width="3" stroke-linecap="round" stroke-linejoin="round"/>
<path d="M21.3471 8.81956L18.0276 5.5L21.3471 2.18044" stroke="white" stroke-width="3" stroke-linecap="round" stroke-linejoin="round"/>
</g>
<defs>
<clipPath id="clip0_4676_61926">
<rect width="42" height="42" fill="white"/>
</clipPath>
</defs>
</svg>
