<svg width="40" height="40" viewBox="0 0 40 40" fill="none" xmlns="http://www.w3.org/2000/svg">
<path d="M22.4998 26.875V29.1667C22.4998 30.5474 21.3805 31.6667 19.9998 31.6667C18.6191 31.6667 17.4998 30.5474 17.4998 29.1667V10.8334C17.4998 9.45266 18.6191 8.33337 19.9998 8.33337C21.3805 8.33337 22.4998 9.45266 22.4998 10.8334V20V22.2917M9.1665 31.6667C7.78579 31.6667 6.6665 30.5474 6.6665 29.1667V22.5C6.6665 21.1193 7.78579 20 9.1665 20C10.5472 20 11.6665 21.1193 11.6665 22.5V29.1667C11.6665 30.5474 10.5472 31.6667 9.1665 31.6667ZM30.8332 31.6667C29.4525 31.6667 28.3332 30.5474 28.3332 29.1667V17.5C28.3332 16.1193 29.4525 15 30.8332 15C32.2139 15 33.3332 16.1193 33.3332 17.5V29.1667C33.3332 30.5474 32.2139 31.6667 30.8332 31.6667Z" stroke="white" stroke-width="3" stroke-linecap="round"/>
</svg>
