<svg width="42" height="42" viewBox="0 0 42 42" fill="none" xmlns="http://www.w3.org/2000/svg">
<g clip-path="url(#clip0_4676_61925)">
<path d="M13.0525 25.9264C16.4159 29.672 20.4221 32.8311 24.2754 34.7764C28.1288 36.7217 31.5475 37.311 33.8529 36.4272C36.1582 35.5434 37.1815 33.2512 36.7195 30.0058C36.2576 26.7603 34.3442 22.7989 31.3594 18.9082C28.3745 15.0175 24.5364 11.482 20.6072 9.00369C16.678 6.5254 12.945 5.28559 10.1495 5.53042C7.35397 5.77526 5.70039 7.48683 5.51705 10.3253C5.33372 13.1638 6.63405 16.9215 9.15985 20.8525" stroke="white" stroke-width="3" stroke-linecap="round"/>
<path d="M32.9443 21.1966C30.3578 25.1208 26.7578 28.8991 22.8565 31.7837C18.9553 34.6684 15.037 36.4494 11.8769 36.7743C8.71677 37.0992 6.5451 35.9443 5.79155 33.5382C5.038 31.1321 5.75745 27.65 7.80757 23.7809C9.85768 19.9118 13.0891 15.9376 16.8625 12.6445C20.6358 9.35149 24.6763 6.97953 28.1843 5.99795C31.6924 5.01638 34.4125 5.49671 35.8065 7.3439C37.2005 9.1911 37.1668 12.2706 35.712 15.9731" stroke="white" stroke-width="3" stroke-linecap="round"/>
<path d="M24.8307 21.1644C24.8307 22.1368 24.4444 23.0695 23.7567 23.7571C23.0691 24.4447 22.1365 24.8311 21.164 24.8311C20.1916 24.8311 19.2589 24.4447 18.5713 23.7571C17.8837 23.0695 17.4974 22.1368 17.4974 21.1644C17.4974 20.1919 17.8837 19.2593 18.5713 18.5717C19.2589 17.884 20.1916 17.4977 21.164 17.4977C22.1365 17.4977 23.0691 17.884 23.7567 18.5717C24.4444 19.2593 24.8307 20.1919 24.8307 21.1644L24.8307 21.1644Z" stroke="white" stroke-width="3" stroke-linecap="round"/>
</g>
<defs>
<clipPath id="clip0_4676_61925">
<rect width="42" height="42" fill="white"/>
</clipPath>
</defs>
</svg>
