<svg width="103" height="115" viewBox="0 0 103 115" fill="none" xmlns="http://www.w3.org/2000/svg">
<path d="M98.8841 69.9999C89.997 84.9677 73.6701 94.9999 55 94.9999C26.8335 94.9999 4 72.1664 4 43.9999C4 34.9435 6.36057 26.4384 10.5 19.0664" stroke="black" stroke-width="8" stroke-linejoin="round"/>
<path d="M93 42.5C93 52.7108 88.9438 62.5035 81.7236 69.7236C74.5035 76.9438 64.7108 81 54.5 81C44.2892 81 34.4965 76.9438 27.2764 69.7236C20.0562 62.5035 16 52.7108 16 42.5C16 32.2892 20.0563 22.4965 27.2764 15.2764C34.4966 8.05624 44.2892 4 54.5 4C64.7108 4.00001 74.5035 8.05624 81.7236 15.2764C88.9438 22.4965 93 32.2892 93 42.5L93 42.5Z" stroke="#8F00FF" stroke-width="8"/>
<path d="M93 42.5C93 52.7108 88.9438 62.5035 81.7236 69.7236C74.5035 76.9438 64.7108 81 54.5 81C44.2892 81 34.4965 76.9438 27.2764 69.7236C20.0562 62.5035 16 52.7108 16 42.5C16 32.2892 20.0563 22.4965 27.2764 15.2764C34.4966 8.05624 44.2892 4 54.5 4C64.7108 4.00001 74.5035 8.05624 81.7236 15.2764C88.9438 22.4965 93 32.2892 93 42.5L93 42.5Z" stroke="#8F00FF" stroke-width="8"/>
<path d="M42 52L55 61L68 52" stroke="#8F00FF" stroke-width="6"/>
<path d="M42 37L55 46L68 37" stroke="#8F00FF" stroke-width="6"/>
<path d="M42 23L55 32L68 23" stroke="#8F00FF" stroke-width="6"/>
<path fill-rule="evenodd" clip-rule="evenodd" d="M59 32.1901V19H51V32.1901L55 34.6516L59 32.1901ZM59 36.8868L56.0482 38.7033L55 39.3484L53.9518 38.7033L51 36.8868V46.1901L55 48.6516L59 46.1901V36.8868ZM51 60.7982L51 50.8868L53.9518 52.7033L55 53.3484L56.0482 52.7033L59 50.8868V60.7982L55 63.5675L51 60.7982ZM51 65.6633L51 72H59V65.6633L56.1384 67.6444L55 68.4325L53.8616 67.6444L51 65.6633Z" fill="#8F00FF"/>
<path d="M55 96V113.5" stroke="black" stroke-width="8" stroke-linejoin="round"/>
<path d="M66 111H45" stroke="black" stroke-width="8" stroke-linejoin="round"/>
</svg>
