<svg width="42" height="42" viewBox="0 0 42 42" fill="none" xmlns="http://www.w3.org/2000/svg">
<path d="M18.4566 27.25L29.75 14.75M12.25 21L15.7412 24.5156" stroke="white" stroke-width="3" stroke-linecap="round" stroke-linejoin="round"/>
<path d="M21 3C23.3638 3 25.7044 3.46559 27.8883 4.37017C30.0722 5.27476 32.0565 6.60063 33.7279 8.27208C35.3994 9.94354 36.7252 11.9278 37.6298 14.1117C38.5344 16.2956 39 18.6362 39 21C39 23.3638 38.5344 25.7044 37.6298 27.8883C36.7252 30.0722 35.3994 32.0565 33.7279 33.7279C32.0565 35.3994 30.0722 36.7252 27.8883 37.6298C25.7044 38.5344 23.3638 39 21 39C18.6362 39 16.2956 38.5344 14.1117 37.6298C11.9278 36.7252 9.94353 35.3994 8.27207 33.7279C6.60062 32.0565 5.27475 30.0722 4.37016 27.8883C3.46558 25.7044 3 23.3638 3 21C3 18.6362 3.46558 16.2956 4.37017 14.1117C5.27475 11.9278 6.60063 9.94353 8.27208 8.27207C9.94354 6.60062 11.9278 5.27475 14.1117 4.37017C16.2956 3.46558 18.6362 3 21 3L21 3Z" stroke="white" stroke-width="3" stroke-linecap="round" stroke-linejoin="round"/>
</svg>
